<?xml version="1.0" encoding="utf-8"?>
<svg version="1.1" xmlns="http://www.w3.org/2000/svg" xmlns:xlink="http://www.w3.org/1999/xlink"
     width="160" height="212" viewBox="42 111 160 212">
<g>
	<path fill="#003C7B" d="M83.604,259.293c-0.206-10.167-3.913-52.763-3.913-52.763s-23.518,36.415-29.84,58.954
		c-6.322,22.538-6.79,38.146-2.64,50.948c6.112,18.851,22.514,13.372,28.31,0.825C84.403,298.038,83.81,269.46,83.604,259.293z
		 M79.51,275.857c-0.734,10.483-2.147,20.056-3.893,26.024c-7.013,23.992-19.097,13.896-21.349,7.382
		c-7.412-21.436,5.656-60.459,11.311-72.2c5.654-11.738,12.152-21.669,12.152-21.669s0.878,6.117,1.636,21.523
		C79.889,247.51,80.272,264.987,79.51,275.857z"/>
	<path fill="#FFD200" d="M88.398,132.763c5.509,0.137,11.623,1.141,16.296,4.084c1.325-0.57,2.609-1.101,3.785-1.8
		c-3.141-2.415-7.361-4.254-12.841-5.335c-12.884-2.543-20.966-0.384-27.888,2.318c-10.359,4.045-22.04,14.919-22.294,25.769
		c-0.217,9.239,3.134,13.847,9.409,17.97c5.267,3.461,12.483,4.341,17.503,4.828c-0.075-1.162-0.179-2.238-0.066-3.352
		c-9.601-1.292-17.064-6.067-17.132-18.514C55.084,143.304,76.022,132.454,88.398,132.763z"/>
	<path fill="#FFD200" d="M108.479,135.047c-1.176,0.699-2.46,1.23-3.785,1.8c5.178,3.261,8.589,8.905,7.439,18.409
		c-0.858,7.1-5.295,13.816-7.734,17.043c1.69-0.283,3.281-1.065,4.963-1.389c2.674-4.312,5.513-10.054,6.28-15.908
		C116.694,146.979,114.745,139.863,108.479,135.047z"/>
	<path fill="#FFD200" d="M79.498,177.634c-2.473,0.033-4.895-0.079-7.196-0.389c-0.112,1.114-0.008,2.19,0.066,3.352
		c1.319,0.127,2.495,0.23,3.435,0.343c5.163,0.622,13.492-0.321,19.775-1.261c0.681-1.509,1.793-2.847,2.439-4.371
		C93.176,176.261,85.557,177.555,79.498,177.634z"/>
	<path fill="#C9253E" d="M170.676,115.363c-25.296,5.652-45.452,13.757-58.619,20.291c-4.839,2.4-8.741,4.591-11.597,6.366
		c-14.779,9.188-19.573,18.973-19.573,18.973s-3.181,5.159-4.552,12.454c-0.432,2.299-0.686,4.809-0.601,7.438
		c0,0,5.326,1.044,22.45-1.582c1.292-0.198,2.644-0.494,4.073-0.735c1.138-0.192,2.776-0.555,4.771-1.046
		c10.746-2.65,31.829-9.049,40.564-12.735c14.58-6.151,23.982-12.439,28.76-15.817C191.622,138.171,208.297,106.958,170.676,115.363
		z M178.548,136.507c-11.684,13.006-23.519,19.201-41.541,26.922c-8.03,3.441-17.505,6.458-26.205,8.808
		c-3.613,0.975-7.094,1.778-10.279,2.503c-2.985,0.68-5.712,1.283-8.049,1.711c-9.205,1.691-12.946,1.198-12.946,1.198
		s0.12-1.275,0.518-3.276c0.851-4.282,2.977-11.899,7.946-17.534c9.04-10.252,19.738-15.141,26.7-18.517
		c0.106-0.051,0.219-0.106,0.324-0.157c6.95-3.381,19.974-8.389,28.738-11.035c9.879-2.982,19.194-4.844,27.429-6.303
		C186.024,118.198,188.393,125.551,178.548,136.507z"/>
	<path fill="#C9253E" d="M100.523,174.799c-0.586,1.474-1.367,2.949-2.339,4.423c1.292-0.198,2.644-0.414,4.072-0.655
		c1.138-0.192,2.776-0.554,4.771-1.046c1.276-1.8,2.996-3.349,3.774-5.285C107.19,173.211,103.708,174.075,100.523,174.799z"/>
	<path fill="#003C7B" d="M114.132,142.207c-1.154,0.395-2.368,0.668-3.499,1.107c3.992,8.098,1.034,17.603-2.823,23.853
		c-5.792,9.387-27.961,39.321-27.961,39.321s-1.891-17.324-0.04-30.476c0.188-1.341,0.442-2.609,0.729-3.832
		c-1.28-0.259-2.357-0.868-3.651-0.776c-0.157,0.657-0.399,1.31-0.527,1.958c-1.117,5.671-1.04,10.886-0.785,13.435
		c0.816,8.158,2.157,28.559,2.157,28.559s8.105-12.182,16.667-23.812c2.432-3.303,9.858-13.092,12.07-16.173
		C114.45,164.242,118.281,151.752,114.132,142.207z"/>
	<linearGradient id="SVGID_1_" gradientUnits="userSpaceOnUse" x1="108.0347" y1="167.3403" x2="110.1994" y2="145.6926">
		<stop  offset="0.0056" style="stop-color:#003C7B"/>
		<stop  offset="0.5" style="stop-color:#008748"/>
		<stop  offset="1" style="stop-color:#FFD200"/>
	</linearGradient>
	<path fill="url(#SVGID_1_)" d="M108.478,135.046c-1.176,0.699-2.46,1.23-3.785,1.8c5.178,3.261,8.589,8.905,7.44,18.409
		c-0.757,6.256-5.571,14.233-7.694,17.043c1.769-0.296,3.317-1.08,4.923-1.389c2.674-4.312,5.514-10.054,6.281-15.908
		C116.694,146.978,114.744,139.862,108.478,135.046z"/>
	<linearGradient id="SVGID_2_" gradientUnits="userSpaceOnUse" x1="82.1055" y1="164.792" x2="111.4504" y2="138.0929">
		<stop  offset="0.0056" style="stop-color:#003C7B"/>
		<stop  offset="0.0133" style="stop-color:#033C7A"/>
		<stop  offset="0.1534" style="stop-color:#37366A"/>
		<stop  offset="0.2956" style="stop-color:#64315D"/>
		<stop  offset="0.4375" style="stop-color:#882C52"/>
		<stop  offset="0.5789" style="stop-color:#A52949"/>
		<stop  offset="0.72" style="stop-color:#B92743"/>
		<stop  offset="0.8605" style="stop-color:#C5253F"/>
		<stop  offset="1" style="stop-color:#C9253E"/>
	</linearGradient>
	<path fill="url(#SVGID_2_)" d="M87.994,156.839c9.04-10.252,19.738-15.141,26.699-18.517c-0.77-1.017-1.878-1.754-2.636-2.67
		c-4.839,2.4-8.742,4.591-11.597,6.366c-14.779,9.188-19.572,18.974-19.572,18.974s-3.181,5.159-4.552,12.453
		c1.237,0.31,2.474,0.619,3.712,0.928C80.897,170.091,83.024,162.474,87.994,156.839z"/>
	<linearGradient id="SVGID_3_" gradientUnits="userSpaceOnUse" x1="73.0908" y1="176.9062" x2="95.4868" y2="178.889">
		<stop  offset="0.1124" style="stop-color:#FFD200"/>
		<stop  offset="0.1133" style="stop-color:#F7D002"/>
		<stop  offset="0.1198" style="stop-color:#C3C011"/>
		<stop  offset="0.1267" style="stop-color:#95B31E"/>
		<stop  offset="0.134" style="stop-color:#6DA729"/>
		<stop  offset="0.1415" style="stop-color:#4B9D33"/>
		<stop  offset="0.1496" style="stop-color:#30953B"/>
		<stop  offset="0.1583" style="stop-color:#1A8F41"/>
		<stop  offset="0.168" style="stop-color:#0B8A45"/>
		<stop  offset="0.1793" style="stop-color:#038847"/>
		<stop  offset="0.1966" style="stop-color:#008748"/>
		<stop  offset="0.2257" style="stop-color:#028847"/>
		<stop  offset="0.2388" style="stop-color:#098A45"/>
		<stop  offset="0.2488" style="stop-color:#168E42"/>
		<stop  offset="0.2571" style="stop-color:#28933D"/>
		<stop  offset="0.2644" style="stop-color:#409A36"/>
		<stop  offset="0.271" style="stop-color:#5DA22E"/>
		<stop  offset="0.277" style="stop-color:#7FAC24"/>
		<stop  offset="0.2827" style="stop-color:#A8B819"/>
		<stop  offset="0.2878" style="stop-color:#D4C50C"/>
		<stop  offset="0.2921" style="stop-color:#FFD200"/>
		<stop  offset="0.3835" style="stop-color:#FDCD02"/>
		<stop  offset="0.493" style="stop-color:#F9BE07"/>
		<stop  offset="0.6119" style="stop-color:#F1A610"/>
		<stop  offset="0.7373" style="stop-color:#E7841C"/>
		<stop  offset="0.868" style="stop-color:#D9592B"/>
		<stop  offset="1" style="stop-color:#C9253E"/>
	</linearGradient>
	<path fill="url(#SVGID_3_)" d="M79.498,177.634c-2.473,0.033-4.895-0.079-7.195-0.389c-0.112,1.114-0.008,2.19,0.066,3.352
		c1.319,0.127,2.495,0.23,3.435,0.343c5.163,0.622,13.492-0.321,19.774-1.261c0.682-1.509,1.794-2.847,2.439-4.371
		C93.177,176.261,85.558,177.555,79.498,177.634z"/>
</g>
</svg>
