<?xml version="1.0" encoding="utf-8"?>
<svg version="1.1" xmlns="http://www.w3.org/2000/svg" xmlns:xlink="http://www.w3.org/1999/xlink"
     width="370" height="215" viewBox="40 110 370 215">
<g>
	<path fill="#003C7B" d="M83.604,259.293c-0.206-10.167-3.913-52.763-3.913-52.763s-23.518,36.415-29.84,58.954
		c-6.322,22.538-6.79,38.146-2.64,50.948c6.111,18.851,22.514,13.372,28.31,0.825C84.403,298.038,83.81,269.46,83.604,259.293z
		 M79.51,275.857c-0.734,10.483-2.147,20.056-3.893,26.024c-7.014,23.992-19.098,13.896-21.35,7.382
		c-7.412-21.436,5.656-60.459,11.312-72.2c5.653-11.738,12.151-21.669,12.151-21.669s0.878,6.117,1.637,21.523
		C79.889,247.51,80.272,264.987,79.51,275.857z"/>
	<path fill="#FFD200" d="M88.398,132.763c5.51,0.137,11.623,1.141,16.296,4.084c1.325-0.57,2.609-1.101,3.785-1.8
		c-3.141-2.415-7.36-4.254-12.841-5.335c-12.884-2.543-20.966-0.384-27.888,2.318c-10.359,4.045-22.04,14.919-22.294,25.769
		c-0.218,9.239,3.134,13.847,9.409,17.97c5.267,3.461,12.482,4.341,17.503,4.828c-0.075-1.162-0.18-2.238-0.066-3.352
		c-9.601-1.292-17.064-6.067-17.132-18.514C55.084,143.304,76.022,132.454,88.398,132.763z"/>
	<path fill="#FFD200" d="M108.479,135.047c-1.176,0.699-2.46,1.23-3.785,1.8c5.179,3.261,8.59,8.905,7.439,18.409
		c-0.858,7.1-5.295,13.816-7.734,17.043c1.69-0.283,3.281-1.065,4.963-1.389c2.675-4.312,5.514-10.054,6.28-15.908
		C116.694,146.979,114.745,139.863,108.479,135.047z"/>
	<path fill="#FFD200" d="M79.498,177.634c-2.474,0.033-4.896-0.079-7.196-0.389c-0.112,1.114-0.008,2.19,0.066,3.352
		c1.318,0.127,2.494,0.23,3.435,0.343c5.163,0.622,13.492-0.321,19.775-1.261c0.681-1.509,1.793-2.847,2.438-4.371
		C93.176,176.261,85.557,177.555,79.498,177.634z"/>
	<path fill="#C9253E" d="M170.676,115.363c-25.296,5.652-45.452,13.757-58.619,20.291c-4.839,2.4-8.741,4.591-11.597,6.366
		c-14.779,9.188-19.573,18.973-19.573,18.973s-3.181,5.159-4.552,12.454c-0.433,2.299-0.687,4.809-0.602,7.438
		c0,0,5.326,1.044,22.45-1.582c1.292-0.198,2.645-0.494,4.073-0.735c1.138-0.192,2.776-0.555,4.771-1.046
		c10.746-2.65,31.829-9.049,40.564-12.735c14.58-6.151,23.981-12.439,28.76-15.817C191.622,138.171,208.297,106.958,170.676,115.363
		z M178.548,136.507c-11.685,13.006-23.52,19.201-41.541,26.922c-8.03,3.441-17.505,6.458-26.205,8.808
		c-3.613,0.975-7.094,1.778-10.279,2.503c-2.984,0.68-5.712,1.283-8.049,1.711c-9.205,1.691-12.946,1.198-12.946,1.198
		s0.12-1.275,0.519-3.276c0.851-4.282,2.977-11.899,7.946-17.534c9.04-10.252,19.737-15.141,26.699-18.517
		c0.106-0.051,0.22-0.106,0.324-0.157c6.95-3.381,19.975-8.389,28.738-11.035c9.879-2.982,19.193-4.844,27.429-6.303
		C186.024,118.198,188.393,125.551,178.548,136.507z"/>
	<path fill="#C9253E" d="M100.523,174.799c-0.586,1.474-1.367,2.949-2.339,4.423c1.292-0.198,2.645-0.414,4.072-0.655
		c1.138-0.192,2.776-0.554,4.771-1.046c1.276-1.8,2.996-3.349,3.774-5.285C107.19,173.211,103.708,174.075,100.523,174.799z"/>
	<path fill="#003C7B" d="M114.132,142.207c-1.154,0.395-2.368,0.668-3.499,1.107c3.992,8.098,1.034,17.603-2.823,23.853
		c-5.792,9.387-27.961,39.321-27.961,39.321s-1.891-17.324-0.04-30.476c0.188-1.341,0.442-2.609,0.729-3.832
		c-1.28-0.259-2.357-0.868-3.651-0.776c-0.157,0.657-0.399,1.31-0.527,1.958c-1.116,5.671-1.04,10.886-0.784,13.435
		c0.815,8.158,2.156,28.559,2.156,28.559s8.105-12.182,16.667-23.812c2.433-3.303,9.858-13.092,12.07-16.173
		C114.45,164.242,118.281,151.752,114.132,142.207z"/>

		<linearGradient id="SVGID_1_" gradientUnits="userSpaceOnUse" x1="107.8938" y1="673.7148" x2="110.0586" y2="695.3631" gradientTransform="matrix(1 0 0 -1 0.1401 841.0547)">
		<stop  offset="0.0056" style="stop-color:#003C7B"/>
		<stop  offset="0.5" style="stop-color:#008748"/>
		<stop  offset="1" style="stop-color:#FFD200"/>
	</linearGradient>
	<path fill="url(#SVGID_1_)" d="M108.478,135.046c-1.176,0.699-2.46,1.23-3.785,1.8c5.179,3.261,8.59,8.905,7.44,18.409
		c-0.757,6.256-5.571,14.233-7.694,17.043c1.77-0.296,3.317-1.08,4.923-1.389c2.675-4.312,5.515-10.054,6.281-15.908
		C116.694,146.978,114.744,139.862,108.478,135.046z"/>

		<linearGradient id="SVGID_2_" gradientUnits="userSpaceOnUse" x1="81.9661" y1="676.2627" x2="111.3104" y2="702.9613" gradientTransform="matrix(1 0 0 -1 0.1401 841.0547)">
		<stop  offset="0.0056" style="stop-color:#003C7B"/>
		<stop  offset="0.0133" style="stop-color:#033C7A"/>
		<stop  offset="0.1534" style="stop-color:#37366A"/>
		<stop  offset="0.2956" style="stop-color:#64315D"/>
		<stop  offset="0.4375" style="stop-color:#882C52"/>
		<stop  offset="0.5789" style="stop-color:#A52949"/>
		<stop  offset="0.72" style="stop-color:#B92743"/>
		<stop  offset="0.8605" style="stop-color:#C5253F"/>
		<stop  offset="1" style="stop-color:#C9253E"/>
	</linearGradient>
	<path fill="url(#SVGID_2_)" d="M87.994,156.839c9.04-10.252,19.737-15.141,26.698-18.517c-0.77-1.017-1.878-1.754-2.636-2.67
		c-4.839,2.4-8.742,4.591-11.597,6.366c-14.779,9.188-19.572,18.974-19.572,18.974s-3.181,5.159-4.552,12.453
		c1.236,0.31,2.474,0.619,3.712,0.928C80.897,170.091,83.024,162.474,87.994,156.839z"/>

		<linearGradient id="SVGID_3_" gradientUnits="userSpaceOnUse" x1="72.9504" y1="664.1484" x2="95.3456" y2="662.1657" gradientTransform="matrix(1 0 0 -1 0.1401 841.0547)">
		<stop  offset="0.1124" style="stop-color:#FFD200"/>
		<stop  offset="0.1133" style="stop-color:#F7D002"/>
		<stop  offset="0.1198" style="stop-color:#C3C011"/>
		<stop  offset="0.1267" style="stop-color:#95B31E"/>
		<stop  offset="0.134" style="stop-color:#6DA729"/>
		<stop  offset="0.1415" style="stop-color:#4B9D33"/>
		<stop  offset="0.1496" style="stop-color:#30953B"/>
		<stop  offset="0.1583" style="stop-color:#1A8F41"/>
		<stop  offset="0.168" style="stop-color:#0B8A45"/>
		<stop  offset="0.1793" style="stop-color:#038847"/>
		<stop  offset="0.1966" style="stop-color:#008748"/>
		<stop  offset="0.2257" style="stop-color:#028847"/>
		<stop  offset="0.2388" style="stop-color:#098A45"/>
		<stop  offset="0.2488" style="stop-color:#168E42"/>
		<stop  offset="0.2571" style="stop-color:#28933D"/>
		<stop  offset="0.2644" style="stop-color:#409A36"/>
		<stop  offset="0.271" style="stop-color:#5DA22E"/>
		<stop  offset="0.277" style="stop-color:#7FAC24"/>
		<stop  offset="0.2827" style="stop-color:#A8B819"/>
		<stop  offset="0.2878" style="stop-color:#D4C50C"/>
		<stop  offset="0.2921" style="stop-color:#FFD200"/>
		<stop  offset="0.3835" style="stop-color:#FDCD02"/>
		<stop  offset="0.493" style="stop-color:#F9BE07"/>
		<stop  offset="0.6119" style="stop-color:#F1A610"/>
		<stop  offset="0.7373" style="stop-color:#E7841C"/>
		<stop  offset="0.868" style="stop-color:#D9592B"/>
		<stop  offset="1" style="stop-color:#C9253E"/>
	</linearGradient>
	<path fill="url(#SVGID_3_)" d="M79.498,177.634c-2.474,0.033-4.896-0.079-7.195-0.389c-0.112,1.114-0.008,2.19,0.066,3.352
		c1.318,0.127,2.494,0.23,3.435,0.343c5.163,0.622,13.492-0.321,19.774-1.261c0.682-1.509,1.794-2.847,2.438-4.371
		C93.177,176.261,85.558,177.555,79.498,177.634z"/>
</g>
<g>
	<g>

			<path fill="none" stroke="#702F00" stroke-width="1.6086" stroke-linecap="round" stroke-linejoin="round" stroke-miterlimit="10" d="
			M147.182,277.611l0.068-0.02c8.152-3.759,5.668-15.659-3.108-15.659c-8.775,0-11.261,11.9-3.107,15.659l0.066,0.02
			 M165.531,277.611l0.067-0.02c8.153-3.759,5.668-15.659-3.107-15.659c-8.776,0-11.262,11.9-3.108,15.659l0.068,0.02
			 M181.541,278.21c9.788-0.393,10.718-14.481,1.108-16.168c-2.109-0.371-4.303,0.184-6.042,1.416
			c-2.063,1.462-3.473,4.049-3.38,6.612 M206.808,265.89c-1.21-2.051-3.309-3.44-5.636-3.848
			c-11.295-1.984-12.957,16.159-1.321,16.168 M133.693,277.62v-8.235 M118.327,275.669l0.01-23.072 M121.974,269.521l-0.01,5.927
			 M121.983,259.403v-6.96 M130.171,255.763l-5.062,5.02 M121.983,252.442c0.005-2.573-3.949-2.275-3.646,0.155 M118.327,275.669
			c-0.008,2.454,3.784,2.443,3.646-0.184 M121.983,259.403c-0.263,1.436,1.819,2.693,3.127,1.38 M133.693,269.385
			c-0.131-7.945-11.895-7.601-11.719,0.135 M173.218,287.303V270.07 M176.874,270.07l-0.02,17.002 M173.218,287.303
			c-0.005,2.152,3.144,2.5,3.592,0.472c0.04-0.182,0.103-0.525,0.045-0.703 M197.359,268.66c-1.205,0.015-2.101,1.113-1.866,2.299
			 M205.239,268.66h-7.88 M195.483,270.959c0.52,2.184,2.146,3.487,4.368,3.582 M205.239,268.66c1.19,0.014,2.033-1.085,1.776-2.239
			c-0.039-0.178-0.099-0.382-0.208-0.531 M287.292,265.89c-1.064-1.938-3.11-3.306-5.238-3.774
			c-11.516-2.538-13.575,16.085-1.709,16.094 M277.844,268.66c-1.206,0.015-2.102,1.113-1.867,2.299 M285.733,268.66h-7.889
			 M275.978,270.959c0.518,2.184,2.146,3.487,4.367,3.582 M285.733,268.66c1.134,0.014,1.984-1.005,1.801-2.123
			c-0.031-0.178-0.115-0.518-0.242-0.647 M224.751,261.942c-2.12,0.084-4.127,0.945-5.606,2.481
			c-6.608,6.857,2.058,17.617,10.208,12.477c2.301-1.452,3.709-4.117,3.71-6.83 M233.064,263.757l0.011,6.313 M229.418,270.062
			v-6.073 M233.064,263.757c0-2.443-3.784-2.431-3.646,0.193 M217.17,261.942c-4.596-0.067-8.377,3.459-8.381,8.128
			 M208.799,276.383l-0.021-6.303 M212.436,270.08v6.073 M208.799,276.383c-0.006,2.152,3.143,2.502,3.591,0.475
			c0.041-0.184,0.104-0.528,0.045-0.705 M247.583,270.07c0.003,4.316,3.396,7.909,7.696,8.12 M247.593,263.757l-0.009,6.313
			 M251.24,270.062v-6.073 M251.24,263.989c0.146-2.664-3.639-2.674-3.638-0.232 M377.078,261.923
			c-2.118,0.095-4.113,0.944-5.595,2.481c-6.61,6.859,2.055,17.617,10.208,12.476c2.301-1.452,3.708-4.116,3.711-6.829
			 M385.395,263.738l0.009,6.312 M381.747,270.042v-6.072 M385.395,263.738c-0.003-2.444-3.786-2.43-3.646,0.193 M367.007,270.042
			c-0.01-10.696-16.195-10.705-16.204,0.01 M350.803,276.366l-0.009-6.304 M354.448,270.062v6.071 M350.813,276.366
			c-0.164,2.017,3.006,2.564,3.569,0.53c0.074-0.269,0.056-0.492,0.065-0.763 M367.016,277.591l-0.009-7.55 M351.053,261.923
			c-4.499-0.065-8.492,3.495-8.379,8.139 M342.683,276.366l-0.009-6.304 M346.328,270.062v6.071 M342.683,276.366
			c-0.004,1.995,2.791,2.538,3.521,0.705c0.13-0.323,0.111-0.603,0.124-0.938 M323.372,270.051
			c0.017,10.708,16.188,10.71,16.212,0.019 M323.382,263.738l-0.01,6.312 M327.028,270.042v-6.072 M327.028,263.969
			c0.106-2.05-2.374-2.792-3.371-1.194c-0.164,0.264-0.291,0.648-0.267,0.962 M339.595,262.512l-0.011,7.559 M312.248,261.923
			c-2.366-0.117-5.047,1.497-6.379,3.392c-5.773,8.209,5.537,17.542,12.418,10.395c1.454-1.51,2.283-3.56,2.285-5.658
			 M320.581,252.829l-0.009,17.223 M316.915,270.051l0.021-17.001 M320.581,252.829c0.008-2.453-3.783-2.444-3.646,0.184
			 M388.05,270.051c0.016,10.712,16.194,10.706,16.211,0.019 M388.059,263.738l-0.009,6.312 M391.704,270.042v-6.072
			 M391.704,263.969c0.146-2.663-3.636-2.675-3.638-0.23 M404.271,262.512l-0.011,7.559 M333.639,265.36
			c0-2.418-3.655-2.418-3.655,0C329.983,267.775,333.639,267.775,333.639,265.36L333.639,265.36L333.639,265.36z M333.639,259.673
			c0-2.418-3.655-2.418-3.655,0C329.983,262.089,333.639,262.088,333.639,259.673L333.639,259.673L333.639,259.673z
			 M251.211,258.302c0-2.416-3.656-2.416-3.656,0S251.211,260.717,251.211,258.302L251.211,258.302L251.211,258.302z
			 M235.932,270.042c-0.097,3.952,3.004,7.45,6.851,8.042 M235.913,251.071l0.02,18.97 M239.588,269.781v-5.3 M241.772,262.299
			c-1.186-0.081-2.185,1.039-2.184,2.182 M245.102,262.299h-3.33 M242.782,278.083c1.156,0.118,2.123-0.614,2.202-1.807
			 M244.985,276.277c-0.062-0.94-0.695-1.631-1.615-1.804 M239.588,269.781c0.104,2.419,1.259,4.255,3.782,4.692 M260.169,275.998
			c1.268,2.715,4.794,2.715,6.051,0.011 M255.416,264.365l4.753,11.632 M271.974,261.941l-5.754,14.056 M263.324,274.038
			l-4.445-10.851 M258.87,263.188c-0.024-0.242-0.262-0.6-0.431-0.77c-1.438-1.443-3.808,0.092-3.023,1.947"/>
	</g>
</g>
</svg>
